<svg width="32" height="32" viewBox="0 0 48 48" fill="none" xmlns="http://www.w3.org/2000/svg">
<rect width="48" height="48" rx="12" fill="#0077FF"/>
<path d="M28.29 25.47C32.77 21.34 34.94 17.51 34.94 17.51C35.66 16.29 34.94 15.5 33.66 15.5H29.94C28.82 15.5 28.33 16.06 28.04 16.6C28.04 16.6 26.56 19.31 24.79 21.29C23.49 22.71 22.94 23 22.56 23C22.34 23 22.04 22.71 22.04 21.81V15.94C22.04 14.56 21.56 14 20.44 14H15.19C14.5 14 14 14.54 14 15.1C14 16.39 15.79 16.74 16.04 20.09V25.44C16.04 26.86 15.81 27.2 15.31 27.2C14.31 27.2 11.94 24.71 10.56 22.14C9.94 20.9 9.44 20.5 8.31 20.5H4.69C3.5 20.5 3.31 21.06 3.31 21.7C3.31 23.06 5.44 27.31 9.56 31.6C12.69 34.9 16.44 36.5 19.44 36.5C21.69 36.5 22.31 35.9 22.31 34.7V30.9C22.31 29.7 22.81 29.31 23.44 29.31C23.94 29.31 24.69 29.66 26.19 31.06C28.06 32.77 28.69 33.5 30.31 33.5H33.94C35.19 33.5 35.81 32.97 36.06 32.23C36.31 31.43 35.94 30.74 35.06 29.91C34.44 29.34 31.94 27.17 28.29 25.47Z" fill="white"/>
</svg>

