<svg width="32" height="32" viewBox="0 0 48 48" fill="none" xmlns="http://www.w3.org/2000/svg">
<rect width="48" height="48" rx="12" fill="#F7931E"/>
<path d="M24 14C21.24 14 19 16.24 19 19C19 21.76 21.24 24 24 24C26.76 24 29 21.76 29 19C29 16.24 26.76 14 24 14ZM32 29.52C31.68 28.76 30.84 28.44 30.08 28.76C29.24 29.12 27.6 29.76 24 29.76C20.4 29.76 18.76 29.12 17.92 28.76C17.16 28.44 16.32 28.76 16 29.52C15.68 30.28 16 31.12 16.76 31.44C18 32 20.36 32.76 23.28 32.88L19.72 36.44C19.04 37.12 19.04 38.24 19.72 38.92C20.4 39.6 21.52 39.6 22.2 38.92L24 37.12L25.8 38.92C26.48 39.6 27.6 39.6 28.28 38.92C28.96 38.24 28.96 37.12 28.28 36.44L24.72 32.88C27.64 32.76 30 32 31.24 31.44C32 31.12 32.32 30.28 32 29.52Z" fill="white"/>
</svg>

