<svg width="32" height="32" viewBox="0 0 48 48" fill="none" xmlns="http://www.w3.org/2000/svg">
<rect width="48" height="48" rx="12" fill="#27A7E7"/>
<path d="M34.57 14.26C34.57 14.26 37.36 13.17 37.11 15.72C37.03 16.78 36.38 20.23 35.86 23.1L33.93 33.48C33.93 33.48 33.74 35.36 32.07 35.73C30.4 36.11 28.12 34.52 27.64 34.16C27.21 33.84 20.86 29.72 18.32 27.41C17.69 26.82 17.03 25.64 18.71 24.52L28.12 17.83C29.28 17 28.61 16.46 27.4 17.22L14.52 25.31C14.52 25.31 13.02 26.19 11.07 25.64L5.98 24.1C5.98 24.1 4.22 23.11 7.03 22.07C13.97 19.28 22.46 16.38 34.57 14.26Z" fill="white"/>
</svg>

